<svg id="visual" viewBox="0 0 900 600" width="900" height="600" xmlns="http://www.w3.org/2000/svg" xmlns:xlink="http://www.w3.org/1999/xlink" version="1.1"><path d="M0 381L21.5 381C43 381 86 381 128.8 380.7C171.7 380.3 214.3 379.7 257.2 367.3C300 355 343 331 385.8 337C428.7 343 471.3 379 514.2 381.3C557 383.7 600 352.3 642.8 341.3C685.7 330.3 728.3 339.7 771.2 350.7C814 361.7 857 374.3 878.5 380.7L900 387L900 601L878.5 601C857 601 814 601 771.2 601C728.3 601 685.7 601 642.8 601C600 601 557 601 514.2 601C471.3 601 428.7 601 385.8 601C343 601 300 601 257.2 601C214.3 601 171.7 601 128.8 601C86 601 43 601 21.5 601L0 601Z" fill="#7b43a6"></path><path d="M0 377L21.5 383.3C43 389.7 86 402.3 128.8 414C171.7 425.7 214.3 436.3 257.2 426.8C300 417.3 343 387.7 385.8 372.8C428.7 358 471.3 358 514.2 359.3C557 360.7 600 363.3 642.8 375.8C685.7 388.3 728.3 410.7 771.2 423.7C814 436.7 857 440.3 878.5 442.2L900 444L900 601L878.5 601C857 601 814 601 771.2 601C728.3 601 685.7 601 642.8 601C600 601 557 601 514.2 601C471.3 601 428.7 601 385.8 601C343 601 300 601 257.2 601C214.3 601 171.7 601 128.8 601C86 601 43 601 21.5 601L0 601Z" fill="#8a42aa"></path><path d="M0 439L21.5 439.3C43 439.7 86 440.3 128.8 443.7C171.7 447 214.3 453 257.2 457.2C300 461.3 343 463.7 385.8 455.7C428.7 447.7 471.3 429.3 514.2 433.7C557 438 600 465 642.8 470C685.7 475 728.3 458 771.2 457.8C814 457.7 857 474.3 878.5 482.7L900 491L900 601L878.5 601C857 601 814 601 771.2 601C728.3 601 685.7 601 642.8 601C600 601 557 601 514.2 601C471.3 601 428.7 601 385.8 601C343 601 300 601 257.2 601C214.3 601 171.7 601 128.8 601C86 601 43 601 21.5 601L0 601Z" fill="#9940ae"></path><path d="M0 501L21.5 504.7C43 508.3 86 515.7 128.8 513.7C171.7 511.7 214.3 500.3 257.2 492C300 483.7 343 478.3 385.8 474.5C428.7 470.7 471.3 468.3 514.2 467C557 465.7 600 465.3 642.8 473.3C685.7 481.3 728.3 497.7 771.2 501.5C814 505.3 857 496.7 878.5 492.3L900 488L900 601L878.5 601C857 601 814 601 771.2 601C728.3 601 685.7 601 642.8 601C600 601 557 601 514.2 601C471.3 601 428.7 601 385.8 601C343 601 300 601 257.2 601C214.3 601 171.7 601 128.8 601C86 601 43 601 21.5 601L0 601Z" fill="#a83db0"></path><path d="M0 517L21.5 518.2C43 519.3 86 521.7 128.8 524C171.7 526.3 214.3 528.7 257.2 528.7C300 528.7 343 526.3 385.8 526.7C428.7 527 471.3 530 514.2 534.7C557 539.3 600 545.7 642.8 548C685.7 550.3 728.3 548.7 771.2 543.7C814 538.7 857 530.3 878.5 526.2L900 522L900 601L878.5 601C857 601 814 601 771.2 601C728.3 601 685.7 601 642.8 601C600 601 557 601 514.2 601C471.3 601 428.7 601 385.8 601C343 601 300 601 257.2 601C214.3 601 171.7 601 128.8 601C86 601 43 601 21.5 601L0 601Z" fill="#b739b2"></path></svg>